<svg width="16" height="14" viewBox="0 0 16 14" fill="none" xmlns="http://www.w3.org/2000/svg">
<path d="M1.75438 5C1.54313 5 1.36458 4.92813 1.21875 4.78438C1.07292 4.64063 1 4.4625 1 4.25V1.5C1 1.0875 1.14687 0.734376 1.44062 0.440626C1.73438 0.146876 2.0875 0 2.5 0H5.25C5.4625 0 5.64062 0.0714579 5.78438 0.214375C5.92813 0.357291 6 0.534375 6 0.745625C6 0.956875 5.92813 1.13542 5.78438 1.28125C5.64062 1.42708 5.4625 1.5 5.25 1.5H2.5V4.25C2.5 4.4625 2.42854 4.64063 2.28563 4.78438C2.14271 4.92813 1.96563 5 1.75438 5ZM14.2544 5C14.0431 5 13.8646 4.92813 13.7188 4.78438C13.5729 4.64063 13.5 4.4625 13.5 4.25V1.5H10.75C10.5375 1.5 10.3594 1.42854 10.2156 1.28563C10.0719 1.14271 10 0.965625 10 0.754375C10 0.543125 10.0719 0.364583 10.2156 0.21875C10.3594 0.0729167 10.5375 0 10.75 0H13.5C13.9125 0 14.2656 0.146876 14.5594 0.440626C14.8531 0.734376 15 1.0875 15 1.5V4.25C15 4.4625 14.9285 4.64063 14.7856 4.78438C14.6427 4.92813 14.4656 5 14.2544 5ZM11.4792 9.47917L9.52083 7.52083C9.36806 7.37306 9.29167 7.20069 9.29167 7.00375C9.29167 6.80681 9.36806 6.63194 9.52083 6.47917L11.4792 4.52083C11.6319 4.36806 11.8056 4.29167 12 4.29167C12.1944 4.29167 12.3681 4.36806 12.5208 4.52083C12.6736 4.67361 12.75 4.85187 12.75 5.05562C12.75 5.25924 12.6736 5.43514 12.5208 5.58333L11.875 6.25H15.25C15.4625 6.25 15.6406 6.32146 15.7844 6.46438C15.9281 6.60729 16 6.78438 16 6.99563C16 7.20688 15.9281 7.38542 15.7844 7.53125C15.6406 7.67708 15.4625 7.75 15.25 7.75H11.875L12.5417 8.41667C12.6944 8.56944 12.7674 8.74653 12.7604 8.94792C12.7535 9.14931 12.6736 9.32639 12.5208 9.47917C12.3681 9.63194 12.1944 9.70833 12 9.70833C11.8056 9.70833 11.6319 9.63194 11.4792 9.47917ZM3.47917 9.47917C3.32639 9.32639 3.25 9.14931 3.25 8.94792C3.25 8.74653 3.32639 8.56944 3.47917 8.41667L4.125 7.75H0.75C0.5375 7.75 0.359375 7.67854 0.215625 7.53562C0.071875 7.39271 0 7.21562 0 7.00437C0 6.79313 0.071875 6.61458 0.215625 6.46875C0.359375 6.32292 0.5375 6.25 0.75 6.25H4.125L3.47917 5.58333C3.32639 5.43056 3.25 5.25347 3.25 5.05208C3.25 4.85069 3.32639 4.67361 3.47917 4.52083C3.63194 4.36806 3.80681 4.29167 4.00375 4.29167C4.20069 4.29167 4.37306 4.36806 4.52083 4.52083L6.47917 6.47917C6.63194 6.62694 6.70833 6.79931 6.70833 6.99625C6.70833 7.19319 6.63194 7.36806 6.47917 7.52083L4.52083 9.47917C4.37306 9.63194 4.20069 9.70833 4.00375 9.70833C3.80681 9.70833 3.63194 9.63194 3.47917 9.47917ZM2.5 14C2.0875 14 1.73438 13.8531 1.44062 13.5594C1.14687 13.2656 1 12.9125 1 12.5V9.75C1 9.5375 1.07146 9.35938 1.21437 9.21563C1.35729 9.07188 1.53437 9 1.74562 9C1.95687 9 2.13542 9.07188 2.28125 9.21563C2.42708 9.35938 2.5 9.5375 2.5 9.75V12.5H5.25C5.4625 12.5 5.64062 12.5715 5.78438 12.7144C5.92813 12.8573 6 13.0344 6 13.2456C6 13.4569 5.92813 13.6354 5.78438 13.7812C5.64062 13.9271 5.4625 14 5.25 14H2.5ZM10.75 14C10.5375 14 10.3594 13.9285 10.2156 13.7856C10.0719 13.6427 10 13.4656 10 13.2544C10 13.0431 10.0719 12.8646 10.2156 12.7188C10.3594 12.5729 10.5375 12.5 10.75 12.5H13.5V9.75C13.5 9.5375 13.5715 9.35938 13.7144 9.21563C13.8573 9.07188 14.0344 9 14.2456 9C14.4569 9 14.6354 9.07188 14.7812 9.21563C14.9271 9.35938 15 9.5375 15 9.75V12.5C15 12.9125 14.8531 13.2656 14.5594 13.5594C14.2656 13.8531 13.9125 14 13.5 14H10.75Z" fill="#686868"/>
</svg>
