<svg width="8" height="14" viewBox="0 0 8 14" fill="none" xmlns="http://www.w3.org/2000/svg">
<path d="M4.00008 11.875L5.78987 10.0852C5.9439 9.93118 6.12161 9.85417 6.323 9.85417C6.52439 9.85417 6.70147 9.93056 6.85425 10.0833C7.00703 10.2361 7.08342 10.4132 7.08342 10.6146C7.08342 10.816 7.00772 10.9926 6.85633 11.1444L4.52966 13.4788C4.45411 13.5547 4.37216 13.6085 4.28383 13.64C4.1955 13.6717 4.10091 13.6875 4.00008 13.6875C3.89925 13.6875 3.80466 13.6717 3.71633 13.64C3.628 13.6085 3.54605 13.5547 3.4705 13.4788L1.14383 11.1444C0.992442 10.9926 0.92022 10.816 0.927165 10.6146C0.934109 10.4132 1.01397 10.2361 1.16675 10.0833C1.31953 9.93056 1.49661 9.85417 1.698 9.85417C1.89939 9.85417 2.07626 9.93118 2.22862 10.0852L4.00008 11.875ZM4.00008 2.125L2.21029 3.91479C2.05626 4.06882 1.87855 4.14583 1.67716 4.14583C1.47578 4.14583 1.29869 4.06944 1.14591 3.91667C0.993137 3.76389 0.916748 3.58681 0.916748 3.38542C0.916748 3.18403 0.992442 3.00743 1.14383 2.85563L3.4705 0.52125C3.54605 0.445278 3.628 0.391528 3.71633 0.360001C3.80466 0.328334 3.89925 0.3125 4.00008 0.3125C4.10091 0.3125 4.1955 0.328334 4.28383 0.360001C4.37216 0.391528 4.45411 0.445278 4.52966 0.52125L6.85633 2.85563C7.00772 3.00743 7.08342 3.18056 7.08342 3.375C7.08342 3.56944 7.00703 3.74306 6.85425 3.89583C6.70147 4.04861 6.52439 4.125 6.323 4.125C6.12161 4.125 5.9439 4.04882 5.78987 3.89646L4.00008 2.125Z" fill="#282828"/>
</svg>
